<?xml version="1.0" standalone="no"?>
<!DOCTYPE svg PUBLIC "-//W3C//DTD SVG 1.1//EN" "http://www.w3.org/Graphics/SVG/1.1/DTD/svg11.dtd" >
<svg xmlns="http://www.w3.org/2000/svg">
<metadata>Generated by IcoMoon</metadata>
<defs>
<font id="icomoon" horiz-adv-x="1024">
<font-face units-per-em="1024" ascent="960" descent="-64" />
<missing-glyph horiz-adv-x="1024" />
<glyph unicode="&#x20;" horiz-adv-x="512" d="" />
<glyph unicode="&#xe600;" glyph-name="global-caret-left" d="M396.971 447.317l230.059 230.059v-460.117z" />
<glyph unicode="&#xe601;" glyph-name="global-caret-right" d="M627.029 447.317l-230.059-230.059v460.117z" />
<glyph unicode="&#xe602;" glyph-name="global-caret-up" d="M512 562.347l230.059-230.059h-460.117z" />
<glyph unicode="&#xe603;" glyph-name="magnifying_glass" d="M341.040 361.349c-136.776 0-247.654 110.879-247.654 247.654 0 136.783 110.879 247.661 247.654 247.661 136.779 0 247.661-110.879 247.661-247.661 0-136.772-110.882-247.654-247.661-247.654zM94.474 840.523c-76.547-80.459-122.351-199.298-68.396-351.515 47.312-133.475 187.351-217.658 321.28-217.658 48.596 0 124.361 14.694 194.389 68.192 26.791-23.651 80.934-69.072 97.12-84.033 15.712-14.52 108.281-113.261 136.605-143.732 33.519-36.048 121.842-129.577 144.872-152.911 18.828-19.057 26.464-10.964 34.441-2.983 6.659 6.656 58.317 58.201 64.761 66.294 3.529 4.42 2.065 18.371-4.608 25.088-6.67 6.745-15.268 14.606-50.739 47.753-38.799 36.284-173.718 160.113-225.229 212.384-62.45 63.365-93.061 110.22-110.008 127.075 26.935 42.243 50.179 98.311 50.241 170.561 0.072 90.382-24.852 182.828-123.911 267.397-87.934 75.073-188.955 76.421-214.252 76.421-81.695 0-170.779-28.672-246.566-108.332z" />
<glyph unicode="&#xe604;" glyph-name="do_not_contact" d="M890.866 789.18c-229.065 248.443-557.882 198.543-727.941 28.979-275.886-275.081-146.036-615.939 1.703-744.984 200.431-175.066 503.777-200.066 721.118 23.873 134.881 138.96 222.799 456.032 5.12 692.132zM226.004 732.925c145.418 147.432 365.776 154.378 531.889 35.799l-567.692-567.692c-88.477 116.494-145.37 348.215 35.802 531.893zM797.099 160.119c-179.732-181.692-434.289-118.487-530.183-34.099l565.985 565.989c84.047-102.694 150.217-343.839-35.802-531.889z" />
<glyph unicode="&#xe605;" glyph-name="lockmode_addnewclient" d="M511.857-62.293c-281.279 0-510.116 228.844-510.116 510.129 0 281.265 228.837 510.095 510.116 510.095 281.283 0 510.119-228.83 510.119-510.095-0.003-281.286-228.84-510.129-510.119-510.129zM511.857 936.888c-269.698 0-489.11-219.423-489.11-489.127 0-269.701 219.412-489.117 489.11-489.117 269.705 0 489.124 219.416 489.124 489.117 0 269.705-219.419 489.127-489.124 489.127zM511.857 956.225c135.803 0 263.475-52.883 359.503-148.907s148.91-223.689 148.91-359.482c0-135.813-52.883-263.492-148.91-359.52-96.027-96.020-223.7-148.903-359.503-148.903s-263.472 52.883-359.496 148.903c-96.031 96.027-148.913 223.706-148.913 359.52 0 135.793 52.886 263.462 148.91 359.482s223.7 148.907 359.499 148.907zM511.857-43.063c131.103 0 254.362 51.057 347.068 143.77 92.706 92.706 143.763 215.962 143.763 347.054 0 131.11-51.057 254.368-143.763 347.075-92.703 92.706-215.965 143.759-347.068 143.759s-254.358-51.057-347.057-143.759c-92.706-92.706-143.759-215.968-143.759-347.075 0-131.092 51.053-254.348 143.759-347.054 92.703-92.713 215.958-143.77 347.057-143.77zM511.857 959.638c-282.665 0-511.823-229.147-511.823-511.802 0-282.703 229.158-511.836 511.823-511.836 282.672 0 511.826 229.134 511.826 511.836-0.003 282.655-229.158 511.802-511.826 511.802v0zM511.857-39.649c-269.182 0-487.404 218.245-487.404 487.41 0 269.203 218.221 487.421 487.404 487.421 269.193 0 487.417-218.221 487.417-487.421 0-269.165-218.228-487.41-487.417-487.41v0zM699.972 584.144c0-105.373-98.147-205.913-190.788-205.913-94.17 0-190.771 100.54-190.771 205.913 0 105.376 85.405 190.792 190.771 190.792 105.373-0.003 190.788-85.415 190.788-190.792zM157.024 106.865c-3.383 55.651 2.652 82.159 15.896 117.296 18.036 47.834 59.569 89.706 98.768 120.467 42.387 33.236 102.137 54.2 155.61 59.252 53.477 5.055 103.468 10.366 167.663 0 65.031-10.523 112.234-29.402 158.986-65.034 30.597-23.357 68.721-61.112 94.242-122.266 12.291-29.45 20.668-72.854 14.162-109.718-7.557-42.732-170.554-159.71-319.427-160.433-148.866-0.713-355.546 93.945-385.901 160.437z" />
<glyph unicode="&#xe606;" glyph-name="star" d="M512 933.939l121.481-369.681h389.926l-312.129-230.608 117.166-371.589-316.443 227.884-314.423-227.884 116.978 369.237-313.958 233.957 390.301-0.379z" />
<glyph unicode="&#xe607;" glyph-name="attachment_paperclip" d="M527.568 872.376l44.261-44.394c0 0-390.922-391.946-429.148-430.172-81.814-76.65-88.497-160.331-73.694-218.948 17.527-69.431 56.214-99.321 65.205-107.018 43.035-36.837 127.481-72.349 224.393-25.283 52.808 25.651 65.468 44.343 108.397 87.272 75.957 77.452 314.047 314.586 353.062 353.604 108.421 108.421 121.941 113.347 136.52 167.168 2.782 10.291 16.592 79.456-37.212 135.786-31.345 32.819-77.588 61.317-154.395 38.724-42.752-12.578-79.2-56.061-123.204-100.076-52.808-52.808-287.297-288.362-311.794-312.856-13.78-13.78-44.281-42.708-46.087-71.782-1.106-17.93 7.533-46.524 24.47-63.464 24.733-24.73 58.938-26.45 82.439-18.613 22.63 7.543 34.949 25.378 54.207 43.909 53.313 51.296 278.224 277.951 278.224 277.951l40.742-40.724c0 0-246.61-247.269-265.943-266.605-16.172-16.169-47.961-57.935-97.164-72.359-41.69-12.233-97.423-5.386-132.779 31.164-45.254 46.787-47.104 90.518-42.237 127.259 3.939 29.699 21.006 54.443 34.195 67.632 45.394 45.391 319.915 322.106 363.67 365.862 20.463 20.463 75.377 83.5 150.815 97.584 66.294 12.377 136.298-6.543 186.088-61.351 54.292-59.774 60.846-104.25 60.846-146.859 0-95.051-65.42-147.702-87.518-169.981-15.032-15.148-280.033-280.723-456.653-458.168-27.426-27.563-99.069-91.034-188.593-94.853-74.612-3.185-122.586 3.604-191.99 61.327-64.505 53.654-87.76 116.009-92.665 171.831-10.561 120.207 38.216 189.607 77.961 228.823 42.025 41.458 418.116 420.144 445.583 447.611z" />
<glyph unicode="&#xe608;" glyph-name="camera_barcode" d="M0 605.338v-459.319h705.222v459.319h-705.222zM652.339 198.905h-599.45v353.567h599.453v-353.567zM352.635 481.713c58.522 0 105.772-47.493 105.772-106.015 0-58.539-47.251-106.018-105.772-106.018-58.563 0-105.82 47.476-105.82 106.018 0 58.525 47.258 106.015 105.82 106.015zM88.17 516.977h70.519v-35.26h-70.519v35.26zM52.89 676.116h141.056v-88.385h-141.056v88.385zM421.082 605.338h-60.764v144.64h60.764v-144.64zM505.774 749.978h-58.907v-144.64h58.907v144.64zM554.349 749.978h-24.624v-144.64h24.624v144.64zM637.901 749.978h-59.15v-144.64h59.15v144.64zM686.927 749.978h-24.62v-144.64h24.62v144.64zM770.478 749.978h-33.597v-470.924h33.597v470.924zM843.674 749.978h-47.411v-470.924h47.411v470.924zM891.095 749.978h-23.712v-470.924h23.712v470.924zM939.438 749.978h-23.716v-470.924h23.716v470.924zM1023.898 749.978h-59.15v-470.924h59.15v470.924z" />
<glyph unicode="&#xe609;" glyph-name="calendar" d="M137.312 835.4c57.156-0.113 141.844-0.297 141.844-0.297l-0.3 98.854c0 0 1.198 23.791 29.037 23.791 24.231 0 29.317-15.933 29.317-25.091s0.597-97.556 0.597-97.556l348.628 0.297-0.28 97.638c0 0 0.58 25.044 30.205 25.054 21.545 0.007 27.419-11.233 28.43-24.136s0.43-99.284 0.43-99.284 127.573 0.42 146.801 0.42 69.072-19.528 69.072-66.509c0-42.39 0-100.465 0-100.465h-898.181c0 0 0 90.15 0 107.319s24.218 59.965 74.4 59.965zM745.39 806.67c0-23.641 0-44.766 0-56.989 0-14.531-10.008-27.098-27.638-27.098-21.152 0-32.215 11.67-32.177 28.71 0 12.879 0.242 41.018 0.29 55.231-17.684-10.766-29.498-30.225-29.498-52.446 0-33.908 27.477-61.382 61.382-61.382 33.901 0 61.375 27.474 61.375 61.382 0.007 24.033-13.619 42.523-33.734 52.593zM338.678 806.67c-0.43-23.34 0-44.766 0-56.989 0-12.735-10.004-27.098-27.634-27.098-21.152 0-32.215 11.67-32.177 28.71 0 12.879 0.242 41.018 0.29 55.231-17.684-10.766-29.495-30.225-29.495-52.446 0-33.908 27.474-61.382 61.382-61.382 33.901 0 61.375 27.474 61.375 61.382 0 24.033-13.626 42.523-33.741 52.593zM62.911 633.9h898.185c0 0 0-610.471 0-632.815 0-22.34-29.28-64.171-70.38-64.171-34.219 0-736.14-0.010-756.883-0.010-29.914 0-70.922 31.881-70.922 75.346s0 621.65 0 621.65zM126.239 408.668h156.809v155.61h-156.809v-155.61zM330.732 408.668h156.805v155.61h-156.805v-155.61zM535.214 408.668h156.805v155.61h-156.805v-155.61zM739.703 408.668h156.805v155.61h-156.805v-155.61zM126.239 202.95h156.809v155.61h-156.809v-155.61zM330.732 202.95h156.805v155.61h-156.805v-155.61zM535.214 202.95h156.805v155.61h-156.805v-155.61zM739.703 202.95h156.805v155.61h-156.805v-155.61zM126.239 0.061h156.809v155.61h-156.809v-155.61zM330.732 0.061h156.805v155.61h-156.805v-155.61zM535.214 0.061h156.805v155.61h-156.805v-155.61zM739.703 0.061h156.805v155.61h-156.805v-155.61z" />
<glyph unicode="&#xe60a;" glyph-name="manage_client" d="M879.097 491.319c14.616 7.1 126.269 62.351 144.155 70.844 0.591 6.161-30.693 104.728-41.561 115.698-11.448-1.959-97.669-21.47-158.56-34.976-19.34 36.12-59.665 77.548-81.606 93.269 1.952 11.636 40.506 123.368 51.292 153.897-46.862 29.024-98.499 50.285-109.588 53.627-21.688-29.351-55.931-88.364-88.603-135.243-54.63 12.745-125.918 6.997-125.918 6.997s-57.784 120.074-72.284 144.568c-82.186-23.286-113.531-40.267-113.787-40.868 6.004-36.973 29.024-136.257 34.505-157.321-50.924-29.522-84.965-73.745-93.273-83.944-25.064 4.953-139.667 46.572-154.959 51.418-18.005-28.935-46.65-85.354-52.565-112.046 43.701-28.269 128.751-81.275 135.243-86.272-10.598-34.604-11.599-109.029-6.997-125.914-13.322-5.659-122.569-61.327-143.852-70.581 3.072-30.693 35.632-116.975 41.254-115.968 5.663 1.014 141.428 32.727 156.232 32.645 25.003-39.581 52.070-65.253 83.941-93.273-3.891-11.22-42.407-125.181-51.299-153.894 28.109-33.874 103.345-51.487 109.592-51.299 5.666 2.673 77.995 124.754 88.607 135.24 25.484-9.933 92.208-11.428 125.911-6.994 4.024-9.561 62.857-133.407 72.291-144.572 16.865 2.693 79.302 21.688 114.261 41.974-0.853 7.4-31.106 139.738-34.976 156.232 42.035 25.081 75.875 59.532 93.269 83.941 13.804-2.266 120.501-40.366 153.897-51.299 22.17 32.061 47.217 92.795 53.627 109.592-6.997 4.994-108.971 71.226-135.243 86.272 11.701 75.104 7.349 100.482 6.994 128.249zM512.266 274.466c-62.089 0-174.879 46.435-174.879 172.551 0 116.122 94.604 172.547 170.22 172.547 88.139 0 174.872-58.559 174.872-172.547 0-135.243-115.78-172.551-170.213-172.551z" />
<glyph unicode="&#xe60b;" glyph-name="refresh" d="M866 649.438l156.628 77.807-105.598-318.403-322.423 105.817 164.871 81.992c0 0-80.937 186.737-308.664 186.737-169.332 0-327.714-144.377-327.714-340.698 0-111.94 84.473-328.506 348.73-328.506 141.254 0 262.782 109.479 296.472 205.735 26.563-8.544 99.625-33.287 115.268-38.581-57.754-151.286-223.556-291.103-413.631-291.103-294.82 0-468.562 230.055-468.562 451.686 0 246.18 184.815 463.848 470.456 463.848 85.903-0.003 290.451-44.889 394.168-256.331z" />
<glyph unicode="&#xe60c;" glyph-name="edit_delete" d="M512.73 960c-283.197 0-512.73-229.533-512.73-512.73 0-283.139 229.533-512.672 512.73-512.672 283.139 0 512.672 229.533 512.672 512.672 0 283.197-229.533 512.73-512.672 512.73zM761.931 254.348l-57.597-57.644-192.707 192.707-190.618-190.604-57.593 57.641 190.618 190.618-191.136 191.133 57.641 57.597 191.085-191.085 193.188 193.188 57.641-57.597-193.232-193.236 192.71-192.717z" />
<glyph unicode="&#xe60d;" glyph-name="uniE60D" d="M1023.447 448.276c0-282.617-229.106-511.724-511.724-511.724s-511.724 229.106-511.724 511.724c0 282.617 229.106 511.724 511.724 511.724s511.724-229.106 511.724-511.724z" />
<glyph unicode="&#xe60e;" glyph-name="uniE60E" d="M956.853 448.338c0-245.907-199.219-445.191-445.129-445.191s-445.129 199.284-445.129 445.191c0 245.849 199.219 445.068 445.129 445.068s445.129-199.219 445.129-445.068z" />
<glyph unicode="&#xe60f;" glyph-name="uniE60F" d="M1023.447 448.276c0-282.617-229.106-511.724-511.724-511.724s-511.724 229.106-511.724 511.724c0 282.617 229.106 511.724 511.724 511.724s511.724-229.106 511.724-511.724z" />
<glyph unicode="&#xe610;" glyph-name="uniE610" d="M956.853 448.338c0-245.907-199.219-445.191-445.129-445.191s-445.129 199.284-445.129 445.191c0 245.849 199.219 445.068 445.129 445.068s445.129-199.219 445.129-445.068z" />
<glyph unicode="&#xe611;" glyph-name="carousel_03" d="M511.659 3.243c-245.76 0-445.099 199.339-445.099 445.099s199.339 445.099 445.099 445.099c245.76 0 445.099-199.339 445.099-445.099s-198.997-445.099-445.099-445.099z" />
<glyph unicode="&#xe612;" glyph-name="x" d="M0.683 818.688l141.312 141.312 882.005-882.347-141.312-141.312-882.005 882.347zM0.683 77.653l882.005 882.347 141.312-141.312-882.347-882.347-140.971 141.312z" />
<glyph unicode="&#xe613;" glyph-name="check" d="M68.267 437.077l83.285 85.333 279.552-286.379-83.285-85.333-279.552 286.379zM305.835 193.707l571.392 585.045 83.285-85.333-571.051-585.387-83.627 85.675z" />
<glyph unicode="&#xe614;" glyph-name="not-applicable" d="M71.339 543.915l826.027-2.048-3.072-125.269-826.027 2.048 3.072 125.269z" />
<glyph unicode="&#xe615;" glyph-name="check-box" d="M2.731 957.269v-1018.197h1018.197v1018.197h-1018.197zM428.032 228.523l-215.381 215.381 55.979 55.979 159.403-159.403 327.339 326.997 55.979-55.979-383.317-382.976z" />
<glyph unicode="&#xe65a;" glyph-name="global-arrow-left" d="M719.305 960l96.986-96.983-511.672-512.44-96.911 97.058 511.597 512.365zM304.62 544.693l511.676-512.444-96.986-96.983-511.601 512.369 96.911 97.058z" />
<glyph unicode="&#xe65b;" glyph-name="global-arrow-right" d="M816.292 447.635l-96.915-97.058-511.669 512.44 96.986 96.983 511.597-512.365zM816.292 447.635l-511.597-512.369-96.986 96.983 511.672 512.444 96.911-97.058z" />
<glyph unicode="&#xe65c;" glyph-name="global-caret-down" d="M512 322.048l-230.059 230.059h460.117z" />
<glyph unicode="&#xe65d;" glyph-name="feed-camera" d="M0 731.307v-666.965h1024v666.965h-1024zM947.2 141.141h-870.4v513.365h870.4v-513.365zM512 551.765c84.992 0 153.6-68.949 153.6-153.941s-68.608-153.941-153.6-153.941-153.6 68.949-153.6 153.941c0 84.992 68.608 153.941 153.6 153.941zM128 602.965h102.4v-51.2h-102.4v51.2zM76.8 834.048h204.8v-128.341h-204.8v128.341z" />
<glyph unicode="&#xe65e;" glyph-name="header-account" d="M512 960c-282.624 0-512-229.035-512-512s229.376-512 512-512c282.965 0 512 229.376 512 512s-229.035 512-512 512zM512 21.333c-235.52 0-426.667 191.147-426.667 426.667s191.147 426.667 426.667 426.667c235.52 0 426.667-191.147 426.667-426.667s-191.147-426.667-426.667-426.667zM512 704c90.453 0 163.499-74.411 163.499-166.229s-73.387-166.229-163.499-166.229-163.499 74.411-163.499 166.229c0 91.819 73.387 166.229 163.499 166.229zM256 147.627h512v-136.533h-512v136.533zM512 372.907c141.312 0 255.659-100.693 255.659-224.939 0-124.587-114.347-109.568-255.659-109.568s-255.659-15.019-255.659 109.568c0 123.904 114.347 224.939 255.659 224.939z" />
<glyph unicode="&#xe65f;" glyph-name="header-lock" d="M161.792 566.443v-630.101h700.416v630.101h-700.416zM789.845 9.045h-555.691v484.693h555.691v-484.693zM512 373.931c35.84 0 64.853-28.331 64.853-63.147s-29.013-63.147-64.853-63.147c-35.84 0-64.853 28.331-64.853 63.147s29.013 63.147 64.853 63.147zM499.029 264.704h25.941l51.883-164.181h-129.707l51.883 164.181zM325.632 669.184c-24.235 92.16 32.085 186.368 125.952 210.603 90.795 23.552 182.955-26.965 210.944-113.664h77.824c-0.683 3.072-1.365 6.485-2.389 9.557-34.816 132.096-171.349 211.285-305.493 176.469-133.803-34.816-214.357-169.984-179.541-302.421 7.509-27.989 20.139-57.003 36.864-84.651h91.477c-26.624 33.451-47.104 70.997-55.637 104.107z" />
<glyph unicode="&#xe660;" glyph-name="header-messages" d="M0 832v-768h1024v768h-1024zM947.2 140.8h-870.4v614.4h870.4v-614.4zM394.24 412.843l-332.8-323.243-36.181 35.499 333.141 322.901 35.84-35.157zM1024 99.157l-36.181-35.499-358.4 348.843 36.181 35.499 358.4-348.843zM475.819 302.592l488.789 488.789 36.181-36.181-488.789-488.789-36.181 36.181zM23.211 755.2l36.181 36.181 488.789-488.789-36.181-36.181-488.789 488.789z" />
<glyph unicode="&#xe661;" glyph-name="header-tasks" d="M-2.048 962.048v-1024h1024v1024h-1024zM931.499 28.501h-843.435v843.093h843.435v-843.093zM238.933 445.952l56.32 56.32 188.416-188.416-56.32-56.32-188.416 188.416zM399.36 285.525l385.707 385.024 56.32-56.32-385.707-384.683-56.32 55.979z" />
<glyph unicode="&#xe900;" glyph-name="backtotop" d="M102.4 857.6v-822.613h822.613v822.613h-822.613zM710.315 392.704l-154.965 161.109v-363.52h-77.483v357.376l-154.965-154.965-53.589 53.589 250.197 250.197 250.197-250.197-59.392-53.589z" />
<glyph unicode="&#xe901;" glyph-name="header-client-lock" d="M575.488 281.771c0 31.744-23.893 55.979-55.979 55.979s-55.979-23.893-55.979-55.979c0-23.893 16.043-47.787 39.936-55.979l-39.936-135.509h119.467l-39.936 135.509c8.192 8.192 32.427 32.085 32.427 55.979zM742.741 544.939v111.616c-7.851 119.467-103.765 215.381-223.232 215.381s-215.381-87.723-223.232-207.189v-111.616h-127.659v-630.101h693.931v629.76h-119.467v-7.851zM360.107 656.555c7.851 79.872 71.68 143.701 159.403 143.701s151.552-63.829 159.403-151.552v-111.616h-310.955l-7.851 119.467zM798.72-21.333h-566.272v502.443h566.272v-502.443z" />
<glyph unicode="&#xe902;" glyph-name="heartopen" d="M506.539 165.376c0 0-100.352 53.931-192.853 146.773-115.712 115.712-123.563 239.275-92.501 308.907 23.211 61.781 77.141 100.352 138.923 108.203 77.141 7.851 123.563-30.72 154.283-77.141 30.72 46.421 77.141 77.141 154.283 77.141v0c61.781-7.851 115.712-46.421 138.923-108.203 30.72-77.141 15.36-192.853-92.501-308.907-100.352-100.693-208.555-146.773-208.555-146.773zM375.467 667.136c0 0-7.851 0-15.36 0-38.571 0-69.632-30.72-84.992-69.632-23.211-53.931-7.851-154.283 77.141-247.125 61.781-69.632 123.563-108.203 154.283-123.563 23.211 15.36 84.992 53.931 154.283 123.563 92.501 92.501 100.352 192.853 77.141 247.125-15.36 38.571-46.421 69.632-84.992 69.632-100.352 7.851-146.773-100.352-146.773-100.352v0c0.341 7.509-45.739 100.352-130.731 100.352z" />
<glyph unicode="&#xe903;" glyph-name="heartsolid" d="M690.176 725.845c-139.947 12.629-178.176-89.088-178.176-89.088s-25.6 102.059-178.176 89.088c-139.947-12.629-216.405-216.405-25.6-407.552 102.059-101.717 203.776-152.576 203.776-152.576s102.059 50.859 203.776 152.917c191.147 190.805 114.688 394.581-25.6 407.211z" />
<glyph unicode="&#xe904;" glyph-name="info" d="M512 819.968c195.584 0 354.048-158.464 354.048-354.048s-158.464-354.048-354.048-354.048c-195.584 0-354.048 158.464-354.048 354.048s158.464 354.048 354.048 354.048zM488.704 404.736h51.456l29.952 199.424v43.776h-111.36v-43.776l29.952-199.424zM463.616 287.488h101.888v87.552h-101.888v-87.552z" />
<glyph unicode="&#xe905;" d="M158.72 801.28v-706.56h706.56v706.56h-706.56zM512 156.16c-161.024 0-291.84 131.072-291.84 291.84 0 161.024 131.072 291.84 291.84 291.84 161.024 0 291.84-131.072 291.84-291.84 0-161.024-130.816-291.84-291.84-291.84z" />
<glyph unicode="&#xe906;" d="M512 696.32c-136.96 0-248.32-111.36-248.32-248.32 0-59.136 20.736-113.408 55.296-155.904l349.184 349.184c-42.752 34.304-97.024 55.040-156.16 55.040z" />
<glyph unicode="&#xe907;" d="M356.096 254.72c42.752-34.56 97.024-55.296 155.904-55.296 136.96 0 248.32 111.36 248.32 248.32 0 59.136-20.736 113.408-55.296 155.904l-348.928-348.928z" />
<glyph unicode="&#xe908;" d="M512 739.84c-161.024 0-291.84-131.072-291.84-291.84 0-161.024 131.072-291.84 291.84-291.84 161.024 0 291.84 131.072 291.84 291.84 0 161.024-130.816 291.84-291.84 291.84zM263.68 448c0 136.96 111.36 248.32 248.32 248.32 59.136 0 113.408-20.736 155.904-55.296l-349.184-348.928c-34.304 42.496-55.040 96.768-55.040 155.904zM512 199.68c-59.136 0-113.408 20.736-155.904 55.296l349.184 349.184c34.56-42.752 55.296-97.024 55.296-155.904-0.256-137.216-111.616-248.576-248.576-248.576z" />
<glyph unicode="&#xe909;" glyph-name="opt-out-02" d="M507.648 741.12c-161.024 0-291.84-131.072-291.84-291.84 0-161.024 131.072-291.84 291.84-291.84 161.024 0 291.84 131.072 291.84 291.84 0.256 161.024-130.816 291.84-291.84 291.84zM259.328 449.28c0 136.96 111.36 248.32 248.32 248.32 59.136 0 113.408-20.736 155.904-55.296l-348.928-348.928c-34.56 42.752-55.296 97.024-55.296 155.904zM507.648 200.96c-59.136 0-113.408 20.736-155.904 55.296l349.184 349.184c34.56-42.752 55.296-97.024 55.296-155.904 0-137.216-111.616-248.576-248.576-248.576z" />
<glyph unicode="&#xe90a;" glyph-name="plusicon" d="M806.912 500.565h-242.347v242.688h-102.4v-242.688h-242.347v-101.717h242.347v-242.688h102.4v242.688h242.347z" />
<glyph unicode="&#xe90b;" glyph-name="shareicon" d="M925.013 449.707l-446.464 266.24v-172.373c0 0-188.075 15.701-289.792-109.568-86.016-101.717-86.016-242.688-86.016-242.688 93.867 148.821 172.373 164.523 250.539 172.373 54.955 7.851 133.12 0 133.12 0v-180.224l438.613 266.24z" />
</font>
</defs>
</svg>
